<svg width="36" height="78" viewBox="0 0 36 78" fill="none" xmlns="http://www.w3.org/2000/svg">
<path d="M3.456 20.936H17.408C21.376 20.936 23.36 22.8133 23.36 26.568V55.368C23.36 59.1227 21.376 61 17.408 61H3.456V20.936ZM17.536 54.6V27.336C17.536 26.568 17.408 26.0773 17.152 25.864C16.896 25.608 16.384 25.48 15.616 25.48H9.28V56.456H15.616C16.384 56.456 16.896 56.3493 17.152 56.136C17.408 55.88 17.536 55.368 17.536 54.6Z" fill="#53A0E8"/>
<path d="M3.456 20.936H17.408C21.376 20.936 23.36 22.8133 23.36 26.568V55.368C23.36 59.1227 21.376 61 17.408 61H3.456V20.936ZM17.536 54.6V27.336C17.536 26.568 17.408 26.0773 17.152 25.864C16.896 25.608 16.384 25.48 15.616 25.48H9.28V56.456H15.616C16.384 56.456 16.896 56.3493 17.152 56.136C17.408 55.88 17.536 55.368 17.536 54.6Z" fill="#53A0E8"/>
<circle cx="28" cy="16" r="5" fill="#53A0E8"/>
<circle cx="28" cy="16" r="5" fill="#53A0E8"/>
<circle cx="10" cy="8" r="8" fill="#53A0E8"/>
<circle cx="10" cy="8" r="8" fill="#53A0E8"/>
</svg>
