<svg width="525" height="153" viewBox="0 0 525 153" fill="none" xmlns="http://www.w3.org/2000/svg">
<path d="M175.32 26.92H192.76C197.72 26.92 200.2 29.2667 200.2 33.96V69.96C200.2 74.6533 197.72 77 192.76 77H175.32V26.92ZM192.92 69V34.92C192.92 33.96 192.76 33.3467 192.44 33.08C192.12 32.76 191.48 32.6 190.52 32.6H182.6V71.32H190.52C191.48 71.32 192.12 71.1867 192.44 70.92C192.76 70.6 192.92 69.96 192.92 69ZM208.769 26.92H215.969V77H208.769V26.92ZM246.766 32.76H232.206V49.24H243.726V54.92H232.206V77H224.926V26.92H246.766V32.76ZM265.648 77H258.368V61.16L247.648 26.92H255.008L261.968 54.52L268.528 26.92H275.888L265.648 61.16V77ZM303.434 42.6H296.074V34.92C296.074 33.96 295.914 33.3467 295.594 33.08C295.328 32.76 294.714 32.6 293.754 32.6H289.674C288.714 32.6 288.074 32.76 287.754 33.08C287.434 33.3467 287.274 33.96 287.274 34.92V69.08C287.274 70.04 287.434 70.68 287.754 71C288.074 71.2667 288.714 71.4 289.674 71.4H293.754C294.714 71.4 295.328 71.2667 295.594 71C295.914 70.68 296.074 70.04 296.074 69.08V61.48H303.434V69.96C303.434 74.7067 300.928 77.08 295.914 77.08H287.434C282.474 77.08 279.994 74.7067 279.994 69.96V33.96C279.994 29.2667 282.474 26.92 287.434 26.92H295.914C300.928 26.92 303.434 29.2667 303.434 33.96V42.6ZM311.191 26.92H318.391V77H311.191V26.92ZM345.748 77L343.747 65.4H333.188L331.348 77H324.148L333.028 26.92H343.508L353.028 77H345.748ZM334.068 59.56H342.788L338.228 33.16L334.068 59.56Z" fill="#53A0E8"/>
<path d="M15.7288 101.16V115H13.9088V104.68L9.30883 115H8.02883L3.40883 104.66V115H1.58883V101.16H3.54883L8.66883 112.6L13.7888 101.16H15.7288ZM27.0554 111.9H20.9754L19.8554 115H17.9354L22.9754 101.14H25.0754L30.0954 115H28.1754L27.0554 111.9ZM26.5354 110.42L24.0154 103.38L21.4954 110.42H26.5354ZM39.632 115L36.312 109.3H34.112V115H32.292V101.06H36.792C37.8453 101.06 38.732 101.24 39.452 101.6C40.1853 101.96 40.732 102.447 41.092 103.06C41.452 103.673 41.632 104.373 41.632 105.16C41.632 106.12 41.352 106.967 40.792 107.7C40.2453 108.433 39.4186 108.92 38.312 109.16L41.812 115H39.632ZM34.112 107.84H36.792C37.7786 107.84 38.5186 107.6 39.012 107.12C39.5053 106.627 39.752 105.973 39.752 105.16C39.752 104.333 39.5053 103.693 39.012 103.24C38.532 102.787 37.792 102.56 36.792 102.56H34.112V107.84ZM46.2799 101.06V115H44.4599V101.06H46.2799ZM60.3418 115H58.5218L51.2018 103.9V115H49.3818V101.04H51.2018L58.5218 112.12V101.04H60.3418V115ZM71.6843 111.9H65.6043L64.4843 115H62.5643L67.6043 101.14H69.7043L74.7243 115H72.8043L71.6843 111.9ZM71.1643 110.42L68.6443 103.38L66.1243 110.42H71.1643ZM90.1329 101.06V102.54H84.0729V107.24H88.9929V108.72H84.0729V115H82.2529V101.06H90.1329ZM100.571 111.9H94.491L93.371 115H91.451L96.491 101.14H98.591L103.611 115H101.691L100.571 111.9ZM100.051 110.42L97.531 103.38L95.011 110.42H100.051ZM113.148 115L109.828 109.3H107.628V115H105.808V101.06H110.308C111.361 101.06 112.248 101.24 112.968 101.6C113.701 101.96 114.248 102.447 114.608 103.06C114.968 103.673 115.148 104.373 115.148 105.16C115.148 106.12 114.868 106.967 114.308 107.7C113.761 108.433 112.934 108.92 111.828 109.16L115.328 115H113.148ZM107.628 107.84H110.308C111.294 107.84 112.034 107.6 112.528 107.12C113.021 106.627 113.268 105.973 113.268 105.16C113.268 104.333 113.021 103.693 112.528 103.24C112.048 102.787 111.308 102.56 110.308 102.56H107.628V107.84ZM119.796 101.06V115H117.976V101.06H119.796ZM131.137 111.9H125.057L123.937 115H122.017L127.057 101.14H129.157L134.177 115H132.257L131.137 111.9ZM130.617 110.42L128.097 103.38L125.577 110.42H130.617ZM140.794 115.14C139.874 115.14 139.047 114.98 138.314 114.66C137.594 114.327 137.027 113.873 136.614 113.3C136.201 112.713 135.987 112.04 135.974 111.28H137.914C137.981 111.933 138.247 112.487 138.714 112.94C139.194 113.38 139.887 113.6 140.794 113.6C141.661 113.6 142.341 113.387 142.834 112.96C143.341 112.52 143.594 111.96 143.594 111.28C143.594 110.747 143.447 110.313 143.154 109.98C142.861 109.647 142.494 109.393 142.054 109.22C141.614 109.047 141.021 108.86 140.274 108.66C139.354 108.42 138.614 108.18 138.054 107.94C137.507 107.7 137.034 107.327 136.634 106.82C136.247 106.3 136.054 105.607 136.054 104.74C136.054 103.98 136.247 103.307 136.634 102.72C137.021 102.133 137.561 101.68 138.254 101.36C138.961 101.04 139.767 100.88 140.674 100.88C141.981 100.88 143.047 101.207 143.874 101.86C144.714 102.513 145.187 103.38 145.294 104.46H143.294C143.227 103.927 142.947 103.46 142.454 103.06C141.961 102.647 141.307 102.44 140.494 102.44C139.734 102.44 139.114 102.64 138.634 103.04C138.154 103.427 137.914 103.973 137.914 104.68C137.914 105.187 138.054 105.6 138.334 105.92C138.627 106.24 138.981 106.487 139.394 106.66C139.821 106.82 140.414 107.007 141.174 107.22C142.094 107.473 142.834 107.727 143.394 107.98C143.954 108.22 144.434 108.6 144.834 109.12C145.234 109.627 145.434 110.32 145.434 111.2C145.434 111.88 145.254 112.52 144.894 113.12C144.534 113.72 144.001 114.207 143.294 114.58C142.587 114.953 141.754 115.14 140.794 115.14ZM155.324 112.48L153.084 117.86H151.864L153.324 112.48H155.324ZM162.061 108.02C162.061 106.66 162.368 105.44 162.981 104.36C163.595 103.267 164.428 102.413 165.481 101.8C166.548 101.187 167.728 100.88 169.021 100.88C170.541 100.88 171.868 101.247 173.001 101.98C174.135 102.713 174.961 103.753 175.481 105.1H173.301C172.915 104.26 172.355 103.613 171.621 103.16C170.901 102.707 170.035 102.48 169.021 102.48C168.048 102.48 167.175 102.707 166.401 103.16C165.628 103.613 165.021 104.26 164.581 105.1C164.141 105.927 163.921 106.9 163.921 108.02C163.921 109.127 164.141 110.1 164.581 110.94C165.021 111.767 165.628 112.407 166.401 112.86C167.175 113.313 168.048 113.54 169.021 113.54C170.035 113.54 170.901 113.32 171.621 112.88C172.355 112.427 172.915 111.78 173.301 110.94H175.481C174.961 112.273 174.135 113.307 173.001 114.04C171.868 114.76 170.541 115.12 169.021 115.12C167.728 115.12 166.548 114.82 165.481 114.22C164.428 113.607 163.595 112.76 162.981 111.68C162.368 110.6 162.061 109.38 162.061 108.02ZM186.43 111.9H180.35L179.23 115H177.31L182.35 101.14H184.45L189.47 115H187.55L186.43 111.9ZM185.91 110.42L183.39 103.38L180.87 110.42H185.91ZM193.487 101.06V115H191.667V101.06H193.487ZM203.929 115L200.609 109.3H198.409V115H196.589V101.06H201.089C202.142 101.06 203.029 101.24 203.749 101.6C204.482 101.96 205.029 102.447 205.389 103.06C205.749 103.673 205.929 104.373 205.929 105.16C205.929 106.12 205.649 106.967 205.089 107.7C204.542 108.433 203.715 108.92 202.609 109.16L206.109 115H203.929ZM198.409 107.84H201.089C202.075 107.84 202.815 107.6 203.309 107.12C203.802 106.627 204.049 105.973 204.049 105.16C204.049 104.333 203.802 103.693 203.309 103.24C202.829 102.787 202.089 102.56 201.089 102.56H198.409V107.84ZM215.077 115.14C213.783 115.14 212.603 114.84 211.537 114.24C210.47 113.627 209.623 112.78 208.997 111.7C208.383 110.607 208.077 109.38 208.077 108.02C208.077 106.66 208.383 105.44 208.997 104.36C209.623 103.267 210.47 102.42 211.537 101.82C212.603 101.207 213.783 100.9 215.077 100.9C216.383 100.9 217.57 101.207 218.637 101.82C219.703 102.42 220.543 103.26 221.157 104.34C221.77 105.42 222.077 106.647 222.077 108.02C222.077 109.393 221.77 110.62 221.157 111.7C220.543 112.78 219.703 113.627 218.637 114.24C217.57 114.84 216.383 115.14 215.077 115.14ZM215.077 113.56C216.05 113.56 216.923 113.333 217.697 112.88C218.483 112.427 219.097 111.78 219.537 110.94C219.99 110.1 220.217 109.127 220.217 108.02C220.217 106.9 219.99 105.927 219.537 105.1C219.097 104.26 218.49 103.613 217.717 103.16C216.943 102.707 216.063 102.48 215.077 102.48C214.09 102.48 213.21 102.707 212.437 103.16C211.663 103.613 211.05 104.26 210.597 105.1C210.157 105.927 209.937 106.9 209.937 108.02C209.937 109.127 210.157 110.1 210.597 110.94C211.05 111.78 211.663 112.427 212.437 112.88C213.223 113.333 214.103 113.56 215.077 113.56ZM238.051 111.9H231.971L230.851 115H228.931L233.971 101.14H236.071L241.091 115H239.171L238.051 111.9ZM237.531 110.42L235.011 103.38L232.491 110.42H237.531ZM245.068 101.06V109.88C245.068 111.12 245.368 112.04 245.968 112.64C246.581 113.24 247.428 113.54 248.508 113.54C249.575 113.54 250.408 113.24 251.008 112.64C251.621 112.04 251.928 111.12 251.928 109.88V101.06H253.748V109.86C253.748 111.02 253.515 112 253.048 112.8C252.581 113.587 251.948 114.173 251.148 114.56C250.361 114.947 249.475 115.14 248.488 115.14C247.501 115.14 246.608 114.947 245.808 114.56C245.021 114.173 244.395 113.587 243.928 112.8C243.475 112 243.248 111.02 243.248 109.86V101.06H245.068ZM267.344 105.1C266.957 104.287 266.397 103.66 265.664 103.22C264.931 102.767 264.077 102.54 263.104 102.54C262.131 102.54 261.251 102.767 260.464 103.22C259.691 103.66 259.077 104.3 258.624 105.14C258.184 105.967 257.964 106.927 257.964 108.02C257.964 109.113 258.184 110.073 258.624 110.9C259.077 111.727 259.691 112.367 260.464 112.82C261.251 113.26 262.131 113.48 263.104 113.48C264.464 113.48 265.584 113.073 266.464 112.26C267.344 111.447 267.857 110.347 268.004 108.96H262.444V107.48H269.944V108.88C269.837 110.027 269.477 111.08 268.864 112.04C268.251 112.987 267.444 113.74 266.444 114.3C265.444 114.847 264.331 115.12 263.104 115.12C261.811 115.12 260.631 114.82 259.564 114.22C258.497 113.607 257.651 112.76 257.024 111.68C256.411 110.6 256.104 109.38 256.104 108.02C256.104 106.66 256.411 105.44 257.024 104.36C257.651 103.267 258.497 102.42 259.564 101.82C260.631 101.207 261.811 100.9 263.104 100.9C264.584 100.9 265.891 101.267 267.024 102C268.171 102.733 269.004 103.767 269.524 105.1H267.344ZM274.131 101.06V109.88C274.131 111.12 274.431 112.04 275.031 112.64C275.644 113.24 276.491 113.54 277.571 113.54C278.637 113.54 279.471 113.24 280.071 112.64C280.684 112.04 280.991 111.12 280.991 109.88V101.06H282.811V109.86C282.811 111.02 282.577 112 282.111 112.8C281.644 113.587 281.011 114.173 280.211 114.56C279.424 114.947 278.537 115.14 277.551 115.14C276.564 115.14 275.671 114.947 274.871 114.56C274.084 114.173 273.457 113.587 272.991 112.8C272.537 112 272.311 111.02 272.311 109.86V101.06H274.131ZM290.267 115.14C289.347 115.14 288.52 114.98 287.787 114.66C287.067 114.327 286.5 113.873 286.087 113.3C285.673 112.713 285.46 112.04 285.447 111.28H287.387C287.453 111.933 287.72 112.487 288.187 112.94C288.667 113.38 289.36 113.6 290.267 113.6C291.133 113.6 291.813 113.387 292.307 112.96C292.813 112.52 293.067 111.96 293.067 111.28C293.067 110.747 292.92 110.313 292.627 109.98C292.333 109.647 291.967 109.393 291.527 109.22C291.087 109.047 290.493 108.86 289.747 108.66C288.827 108.42 288.087 108.18 287.527 107.94C286.98 107.7 286.507 107.327 286.107 106.82C285.72 106.3 285.527 105.607 285.527 104.74C285.527 103.98 285.72 103.307 286.107 102.72C286.493 102.133 287.033 101.68 287.727 101.36C288.433 101.04 289.24 100.88 290.147 100.88C291.453 100.88 292.52 101.207 293.347 101.86C294.187 102.513 294.66 103.38 294.767 104.46H292.767C292.7 103.927 292.42 103.46 291.927 103.06C291.433 102.647 290.78 102.44 289.967 102.44C289.207 102.44 288.587 102.64 288.107 103.04C287.627 103.427 287.387 103.973 287.387 104.68C287.387 105.187 287.527 105.6 287.807 105.92C288.1 106.24 288.453 106.487 288.867 106.66C289.293 106.82 289.887 107.007 290.647 107.22C291.567 107.473 292.307 107.727 292.867 107.98C293.427 108.22 293.907 108.6 294.307 109.12C294.707 109.627 294.907 110.32 294.907 111.2C294.907 111.88 294.727 112.52 294.367 113.12C294.007 113.72 293.473 114.207 292.767 114.58C292.06 114.953 291.227 115.14 290.267 115.14ZM306.165 101.06V102.54H302.365V115H300.545V102.54H296.725V101.06H306.165ZM314.725 115.14C313.432 115.14 312.252 114.84 311.185 114.24C310.119 113.627 309.272 112.78 308.645 111.7C308.032 110.607 307.725 109.38 307.725 108.02C307.725 106.66 308.032 105.44 308.645 104.36C309.272 103.267 310.119 102.42 311.185 101.82C312.252 101.207 313.432 100.9 314.725 100.9C316.032 100.9 317.219 101.207 318.285 101.82C319.352 102.42 320.192 103.26 320.805 104.34C321.419 105.42 321.725 106.647 321.725 108.02C321.725 109.393 321.419 110.62 320.805 111.7C320.192 112.78 319.352 113.627 318.285 114.24C317.219 114.84 316.032 115.14 314.725 115.14ZM314.725 113.56C315.699 113.56 316.572 113.333 317.345 112.88C318.132 112.427 318.745 111.78 319.185 110.94C319.639 110.1 319.865 109.127 319.865 108.02C319.865 106.9 319.639 105.927 319.185 105.1C318.745 104.26 318.139 103.613 317.365 103.16C316.592 102.707 315.712 102.48 314.725 102.48C313.739 102.48 312.859 102.707 312.085 103.16C311.312 103.613 310.699 104.26 310.245 105.1C309.805 105.927 309.585 106.9 309.585 108.02C309.585 109.127 309.805 110.1 310.245 110.94C310.699 111.78 311.312 112.427 312.085 112.88C312.872 113.333 313.752 113.56 314.725 113.56ZM326.008 112.48L323.768 117.86H322.548L324.008 112.48H326.008ZM343.985 105.1C343.598 104.287 343.038 103.66 342.305 103.22C341.571 102.767 340.718 102.54 339.745 102.54C338.771 102.54 337.891 102.767 337.105 103.22C336.331 103.66 335.718 104.3 335.265 105.14C334.825 105.967 334.605 106.927 334.605 108.02C334.605 109.113 334.825 110.073 335.265 110.9C335.718 111.727 336.331 112.367 337.105 112.82C337.891 113.26 338.771 113.48 339.745 113.48C341.105 113.48 342.225 113.073 343.105 112.26C343.985 111.447 344.498 110.347 344.645 108.96H339.085V107.48H346.585V108.88C346.478 110.027 346.118 111.08 345.505 112.04C344.891 112.987 344.085 113.74 343.085 114.3C342.085 114.847 340.971 115.12 339.745 115.12C338.451 115.12 337.271 114.82 336.205 114.22C335.138 113.607 334.291 112.76 333.665 111.68C333.051 110.6 332.745 109.38 332.745 108.02C332.745 106.66 333.051 105.44 333.665 104.36C334.291 103.267 335.138 102.42 336.205 101.82C337.271 101.207 338.451 100.9 339.745 100.9C341.225 100.9 342.531 101.267 343.665 102C344.811 102.733 345.645 103.767 346.165 105.1H343.985ZM350.771 101.06V109.88C350.771 111.12 351.071 112.04 351.671 112.64C352.285 113.24 353.131 113.54 354.211 113.54C355.278 113.54 356.111 113.24 356.711 112.64C357.325 112.04 357.631 111.12 357.631 109.88V101.06H359.451V109.86C359.451 111.02 359.218 112 358.751 112.8C358.285 113.587 357.651 114.173 356.851 114.56C356.065 114.947 355.178 115.14 354.191 115.14C353.205 115.14 352.311 114.947 351.511 114.56C350.725 114.173 350.098 113.587 349.631 112.8C349.178 112 348.951 111.02 348.951 109.86V101.06H350.771ZM366.907 115.14C365.987 115.14 365.161 114.98 364.427 114.66C363.707 114.327 363.141 113.873 362.727 113.3C362.314 112.713 362.101 112.04 362.087 111.28H364.027C364.094 111.933 364.361 112.487 364.827 112.94C365.307 113.38 366.001 113.6 366.907 113.6C367.774 113.6 368.454 113.387 368.947 112.96C369.454 112.52 369.707 111.96 369.707 111.28C369.707 110.747 369.561 110.313 369.267 109.98C368.974 109.647 368.607 109.393 368.167 109.22C367.727 109.047 367.134 108.86 366.387 108.66C365.467 108.42 364.727 108.18 364.167 107.94C363.621 107.7 363.147 107.327 362.747 106.82C362.361 106.3 362.167 105.607 362.167 104.74C362.167 103.98 362.361 103.307 362.747 102.72C363.134 102.133 363.674 101.68 364.367 101.36C365.074 101.04 365.881 100.88 366.787 100.88C368.094 100.88 369.161 101.207 369.987 101.86C370.827 102.513 371.301 103.38 371.407 104.46H369.407C369.341 103.927 369.061 103.46 368.567 103.06C368.074 102.647 367.421 102.44 366.607 102.44C365.847 102.44 365.227 102.64 364.747 103.04C364.267 103.427 364.027 103.973 364.027 104.68C364.027 105.187 364.167 105.6 364.447 105.92C364.741 106.24 365.094 106.487 365.507 106.66C365.934 106.82 366.527 107.007 367.287 107.22C368.207 107.473 368.947 107.727 369.507 107.98C370.067 108.22 370.547 108.6 370.947 109.12C371.347 109.627 371.547 110.32 371.547 111.2C371.547 111.88 371.367 112.52 371.007 113.12C370.647 113.72 370.114 114.207 369.407 114.58C368.701 114.953 367.867 115.14 366.907 115.14ZM382.806 101.06V102.54H379.006V115H377.186V102.54H373.366V101.06H382.806ZM393.286 111.9H387.206L386.086 115H384.166L389.206 101.14H391.306L396.326 115H394.406L393.286 111.9ZM392.766 110.42L390.246 103.38L387.726 110.42H392.766ZM410.042 101.06L404.782 115H402.682L397.422 101.06H399.362L403.742 113.08L408.122 101.06H410.042ZM418.358 115.14C417.065 115.14 415.885 114.84 414.818 114.24C413.751 113.627 412.905 112.78 412.278 111.7C411.665 110.607 411.358 109.38 411.358 108.02C411.358 106.66 411.665 105.44 412.278 104.36C412.905 103.267 413.751 102.42 414.818 101.82C415.885 101.207 417.065 100.9 418.358 100.9C419.665 100.9 420.851 101.207 421.918 101.82C422.985 102.42 423.825 103.26 424.438 104.34C425.051 105.42 425.358 106.647 425.358 108.02C425.358 109.393 425.051 110.62 424.438 111.7C423.825 112.78 422.985 113.627 421.918 114.24C420.851 114.84 419.665 115.14 418.358 115.14ZM418.358 113.56C419.331 113.56 420.205 113.333 420.978 112.88C421.765 112.427 422.378 111.78 422.818 110.94C423.271 110.1 423.498 109.127 423.498 108.02C423.498 106.9 423.271 105.927 422.818 105.1C422.378 104.26 421.771 103.613 420.998 103.16C420.225 102.707 419.345 102.48 418.358 102.48C417.371 102.48 416.491 102.707 415.718 103.16C414.945 103.613 414.331 104.26 413.878 105.1C413.438 105.927 413.218 106.9 413.218 108.02C413.218 109.127 413.438 110.1 413.878 110.94C414.331 111.78 414.945 112.427 415.718 112.88C416.505 113.333 417.385 113.56 418.358 113.56ZM434.913 102.54V107.2H439.993V108.7H434.913V113.5H440.593V115H433.093V101.04H440.593V102.54H434.913ZM447.687 101.06C449.207 101.06 450.52 101.347 451.627 101.92C452.747 102.48 453.6 103.287 454.187 104.34C454.787 105.393 455.087 106.633 455.087 108.06C455.087 109.487 454.787 110.727 454.187 111.78C453.6 112.82 452.747 113.62 451.627 114.18C450.52 114.727 449.207 115 447.687 115H443.347V101.06H447.687ZM447.687 113.5C449.487 113.5 450.86 113.027 451.807 112.08C452.753 111.12 453.227 109.78 453.227 108.06C453.227 106.327 452.747 104.973 451.787 104C450.84 103.027 449.473 102.54 447.687 102.54H445.167V113.5H447.687ZM459.267 101.06V109.88C459.267 111.12 459.567 112.04 460.167 112.64C460.781 113.24 461.627 113.54 462.707 113.54C463.774 113.54 464.607 113.24 465.207 112.64C465.821 112.04 466.127 111.12 466.127 109.88V101.06H467.947V109.86C467.947 111.02 467.714 112 467.247 112.8C466.781 113.587 466.147 114.173 465.347 114.56C464.561 114.947 463.674 115.14 462.687 115.14C461.701 115.14 460.807 114.947 460.007 114.56C459.221 114.173 458.594 113.587 458.127 112.8C457.674 112 457.447 111.02 457.447 109.86V101.06H459.267ZM479.223 111.9H473.143L472.023 115H470.103L475.143 101.14H477.243L482.263 115H480.343L479.223 111.9ZM478.703 110.42L476.183 103.38L473.663 110.42H478.703ZM491.8 115L488.48 109.3H486.28V115H484.46V101.06H488.96C490.013 101.06 490.9 101.24 491.62 101.6C492.353 101.96 492.9 102.447 493.26 103.06C493.62 103.673 493.8 104.373 493.8 105.16C493.8 106.12 493.52 106.967 492.96 107.7C492.413 108.433 491.587 108.92 490.48 109.16L493.98 115H491.8ZM486.28 107.84H488.96C489.947 107.84 490.687 107.6 491.18 107.12C491.673 106.627 491.92 105.973 491.92 105.16C491.92 104.333 491.673 103.693 491.18 103.24C490.7 102.787 489.96 102.56 488.96 102.56H486.28V107.84ZM500.968 101.06C502.488 101.06 503.801 101.347 504.908 101.92C506.028 102.48 506.881 103.287 507.468 104.34C508.068 105.393 508.368 106.633 508.368 108.06C508.368 109.487 508.068 110.727 507.468 111.78C506.881 112.82 506.028 113.62 504.908 114.18C503.801 114.727 502.488 115 500.968 115H496.628V101.06H500.968ZM500.968 113.5C502.768 113.5 504.141 113.027 505.088 112.08C506.035 111.12 506.508 109.78 506.508 108.06C506.508 106.327 506.028 104.973 505.068 104C504.121 103.027 502.755 102.54 500.968 102.54H498.448V113.5H500.968ZM517.089 115.14C515.795 115.14 514.615 114.84 513.549 114.24C512.482 113.627 511.635 112.78 511.009 111.7C510.395 110.607 510.089 109.38 510.089 108.02C510.089 106.66 510.395 105.44 511.009 104.36C511.635 103.267 512.482 102.42 513.549 101.82C514.615 101.207 515.795 100.9 517.089 100.9C518.395 100.9 519.582 101.207 520.649 101.82C521.715 102.42 522.555 103.26 523.169 104.34C523.782 105.42 524.089 106.647 524.089 108.02C524.089 109.393 523.782 110.62 523.169 111.7C522.555 112.78 521.715 113.627 520.649 114.24C519.582 114.84 518.395 115.14 517.089 115.14ZM517.089 113.56C518.062 113.56 518.935 113.333 519.709 112.88C520.495 112.427 521.109 111.78 521.549 110.94C522.002 110.1 522.229 109.127 522.229 108.02C522.229 106.9 522.002 105.927 521.549 105.1C521.109 104.26 520.502 103.613 519.729 103.16C518.955 102.707 518.075 102.48 517.089 102.48C516.102 102.48 515.222 102.707 514.449 103.16C513.675 103.613 513.062 104.26 512.609 105.1C512.169 105.927 511.949 106.9 511.949 108.02C511.949 109.127 512.169 110.1 512.609 110.94C513.062 111.78 513.675 112.427 514.449 112.88C515.235 113.333 516.115 113.56 517.089 113.56ZM88.6823 135.14C88.6823 136.3 88.2823 137.267 87.4823 138.04C86.6956 138.8 85.4889 139.18 83.8623 139.18H81.1823V145H79.3623V131.06H83.8623C85.4356 131.06 86.6289 131.44 87.4423 132.2C88.2689 132.96 88.6823 133.94 88.6823 135.14ZM83.8623 137.68C84.8756 137.68 85.6223 137.46 86.1023 137.02C86.5823 136.58 86.8223 135.953 86.8223 135.14C86.8223 133.42 85.8356 132.56 83.8623 132.56H81.1823V137.68H83.8623ZM100.384 134.04L93.7843 150.16H91.9043L94.0643 144.88L89.6443 134.04H91.6643L95.1043 142.92L98.5043 134.04H100.384ZM104.434 135.54V142C104.434 142.533 104.547 142.913 104.774 143.14C105 143.353 105.394 143.46 105.954 143.46H107.294V145H105.654C104.64 145 103.88 144.767 103.374 144.3C102.867 143.833 102.614 143.067 102.614 142V135.54H101.194V134.04H102.614V131.28H104.434V134.04H107.294V135.54H104.434ZM114.939 133.84C115.766 133.84 116.512 134.02 117.179 134.38C117.846 134.727 118.366 135.253 118.739 135.96C119.126 136.667 119.319 137.527 119.319 138.54V145H117.519V138.8C117.519 137.707 117.246 136.873 116.699 136.3C116.152 135.713 115.406 135.42 114.459 135.42C113.499 135.42 112.732 135.72 112.159 136.32C111.599 136.92 111.319 137.793 111.319 138.94V145H109.499V130.2H111.319V135.6C111.679 135.04 112.172 134.607 112.799 134.3C113.439 133.993 114.152 133.84 114.939 133.84ZM127.072 145.18C126.045 145.18 125.112 144.947 124.272 144.48C123.445 144.013 122.792 143.353 122.312 142.5C121.845 141.633 121.612 140.633 121.612 139.5C121.612 138.38 121.852 137.393 122.332 136.54C122.825 135.673 123.492 135.013 124.332 134.56C125.172 134.093 126.112 133.86 127.152 133.86C128.192 133.86 129.132 134.093 129.972 134.56C130.812 135.013 131.472 135.667 131.952 136.52C132.445 137.373 132.692 138.367 132.692 139.5C132.692 140.633 132.439 141.633 131.932 142.5C131.439 143.353 130.765 144.013 129.912 144.48C129.059 144.947 128.112 145.18 127.072 145.18ZM127.072 143.58C127.725 143.58 128.339 143.427 128.912 143.12C129.485 142.813 129.945 142.353 130.292 141.74C130.652 141.127 130.832 140.38 130.832 139.5C130.832 138.62 130.659 137.873 130.312 137.26C129.965 136.647 129.512 136.193 128.952 135.9C128.392 135.593 127.785 135.44 127.132 135.44C126.465 135.44 125.852 135.593 125.292 135.9C124.745 136.193 124.305 136.647 123.972 137.26C123.639 137.873 123.472 138.62 123.472 139.5C123.472 140.393 123.632 141.147 123.952 141.76C124.285 142.373 124.725 142.833 125.272 143.14C125.819 143.433 126.419 143.58 127.072 143.58ZM140.425 133.84C141.758 133.84 142.838 134.247 143.665 135.06C144.492 135.86 144.905 137.02 144.905 138.54V145H143.105V138.8C143.105 137.707 142.832 136.873 142.285 136.3C141.738 135.713 140.992 135.42 140.045 135.42C139.085 135.42 138.318 135.72 137.745 136.32C137.185 136.92 136.905 137.793 136.905 138.94V145H135.085V134.04H136.905V135.6C137.265 135.04 137.752 134.607 138.365 134.3C138.992 133.993 139.678 133.84 140.425 133.84ZM164.73 131.06L159.47 145H157.37L152.11 131.06H154.05L158.43 143.08L162.81 131.06H164.73ZM176.726 139.1C176.726 139.447 176.706 139.813 176.666 140.2H167.906C167.972 141.28 168.339 142.127 169.006 142.74C169.686 143.34 170.506 143.64 171.466 143.64C172.252 143.64 172.906 143.46 173.426 143.1C173.959 142.727 174.332 142.233 174.546 141.62H176.506C176.212 142.673 175.626 143.533 174.746 144.2C173.866 144.853 172.772 145.18 171.466 145.18C170.426 145.18 169.492 144.947 168.666 144.48C167.852 144.013 167.212 143.353 166.746 142.5C166.279 141.633 166.046 140.633 166.046 139.5C166.046 138.367 166.272 137.373 166.726 136.52C167.179 135.667 167.812 135.013 168.626 134.56C169.452 134.093 170.399 133.86 171.466 133.86C172.506 133.86 173.426 134.087 174.226 134.54C175.026 134.993 175.639 135.62 176.066 136.42C176.506 137.207 176.726 138.1 176.726 139.1ZM174.846 138.72C174.846 138.027 174.692 137.433 174.386 136.94C174.079 136.433 173.659 136.053 173.126 135.8C172.606 135.533 172.026 135.4 171.386 135.4C170.466 135.4 169.679 135.693 169.026 136.28C168.386 136.867 168.019 137.68 167.926 138.72H174.846ZM180.948 135.82C181.268 135.193 181.721 134.707 182.308 134.36C182.908 134.013 183.635 133.84 184.488 133.84V135.72H184.008C181.968 135.72 180.948 136.827 180.948 139.04V145H179.128V134.04H180.948V135.82ZM190.469 145.18C189.629 145.18 188.875 145.04 188.209 144.76C187.542 144.467 187.015 144.067 186.629 143.56C186.242 143.04 186.029 142.447 185.989 141.78H187.869C187.922 142.327 188.175 142.773 188.629 143.12C189.095 143.467 189.702 143.64 190.449 143.64C191.142 143.64 191.689 143.487 192.089 143.18C192.489 142.873 192.689 142.487 192.689 142.02C192.689 141.54 192.475 141.187 192.049 140.96C191.622 140.72 190.962 140.487 190.069 140.26C189.255 140.047 188.589 139.833 188.069 139.62C187.562 139.393 187.122 139.067 186.749 138.64C186.389 138.2 186.209 137.627 186.209 136.92C186.209 136.36 186.375 135.847 186.709 135.38C187.042 134.913 187.515 134.547 188.129 134.28C188.742 134 189.442 133.86 190.229 133.86C191.442 133.86 192.422 134.167 193.169 134.78C193.915 135.393 194.315 136.233 194.369 137.3H192.549C192.509 136.727 192.275 136.267 191.849 135.92C191.435 135.573 190.875 135.4 190.169 135.4C189.515 135.4 188.995 135.54 188.609 135.82C188.222 136.1 188.029 136.467 188.029 136.92C188.029 137.28 188.142 137.58 188.369 137.82C188.609 138.047 188.902 138.233 189.249 138.38C189.609 138.513 190.102 138.667 190.729 138.84C191.515 139.053 192.155 139.267 192.649 139.48C193.142 139.68 193.562 139.987 193.909 140.4C194.269 140.813 194.455 141.353 194.469 142.02C194.469 142.62 194.302 143.16 193.969 143.64C193.635 144.12 193.162 144.5 192.549 144.78C191.949 145.047 191.255 145.18 190.469 145.18ZM198.858 136.06C199.218 135.433 199.751 134.913 200.458 134.5C201.178 134.073 202.011 133.86 202.958 133.86C203.931 133.86 204.811 134.093 205.598 134.56C206.398 135.027 207.025 135.687 207.478 136.54C207.931 137.38 208.158 138.36 208.158 139.48C208.158 140.587 207.931 141.573 207.478 142.44C207.025 143.307 206.398 143.98 205.598 144.46C204.811 144.94 203.931 145.18 202.958 145.18C202.025 145.18 201.198 144.973 200.478 144.56C199.771 144.133 199.231 143.607 198.858 142.98V150.2H197.038V134.04H198.858V136.06ZM206.298 139.48C206.298 138.653 206.131 137.933 205.798 137.32C205.465 136.707 205.011 136.24 204.438 135.92C203.878 135.6 203.258 135.44 202.578 135.44C201.911 135.44 201.291 135.607 200.718 135.94C200.158 136.26 199.705 136.733 199.358 137.36C199.025 137.973 198.858 138.687 198.858 139.5C198.858 140.327 199.025 141.053 199.358 141.68C199.705 142.293 200.158 142.767 200.718 143.1C201.291 143.42 201.911 143.58 202.578 143.58C203.258 143.58 203.878 143.42 204.438 143.1C205.011 142.767 205.465 142.293 205.798 141.68C206.131 141.053 206.298 140.32 206.298 139.48ZM220.554 139.1C220.554 139.447 220.534 139.813 220.494 140.2H211.734C211.8 141.28 212.167 142.127 212.834 142.74C213.514 143.34 214.334 143.64 215.294 143.64C216.08 143.64 216.734 143.46 217.254 143.1C217.787 142.727 218.16 142.233 218.374 141.62H220.334C220.04 142.673 219.454 143.533 218.574 144.2C217.694 144.853 216.6 145.18 215.294 145.18C214.254 145.18 213.32 144.947 212.494 144.48C211.68 144.013 211.04 143.353 210.574 142.5C210.107 141.633 209.874 140.633 209.874 139.5C209.874 138.367 210.1 137.373 210.554 136.52C211.007 135.667 211.64 135.013 212.454 134.56C213.28 134.093 214.227 133.86 215.294 133.86C216.334 133.86 217.254 134.087 218.054 134.54C218.854 134.993 219.467 135.62 219.894 136.42C220.334 137.207 220.554 138.1 220.554 139.1ZM218.674 138.72C218.674 138.027 218.52 137.433 218.214 136.94C217.907 136.433 217.487 136.053 216.954 135.8C216.434 135.533 215.854 135.4 215.214 135.4C214.294 135.4 213.507 135.693 212.854 136.28C212.214 136.867 211.847 137.68 211.754 138.72H218.674ZM224.776 135.82C225.096 135.193 225.549 134.707 226.136 134.36C226.736 134.013 227.463 133.84 228.316 133.84V135.72H227.836C225.796 135.72 224.776 136.827 224.776 139.04V145H222.956V134.04H224.776V135.82ZM232.637 135.54V142C232.637 142.533 232.75 142.913 232.977 143.14C233.204 143.353 233.597 143.46 234.157 143.46H235.497V145H233.857C232.844 145 232.084 144.767 231.577 144.3C231.07 143.833 230.817 143.067 230.817 142V135.54H229.397V134.04H230.817V131.28H232.637V134.04H235.497V135.54H232.637ZM238.642 132.26C238.295 132.26 238.002 132.14 237.762 131.9C237.522 131.66 237.402 131.367 237.402 131.02C237.402 130.673 237.522 130.38 237.762 130.14C238.002 129.9 238.295 129.78 238.642 129.78C238.975 129.78 239.255 129.9 239.482 130.14C239.722 130.38 239.842 130.673 239.842 131.02C239.842 131.367 239.722 131.66 239.482 131.9C239.255 132.14 238.975 132.26 238.642 132.26ZM239.522 134.04V145H237.702V134.04H239.522ZM247.964 133.84C249.297 133.84 250.377 134.247 251.204 135.06C252.031 135.86 252.444 137.02 252.444 138.54V145H250.644V138.8C250.644 137.707 250.371 136.873 249.824 136.3C249.277 135.713 248.531 135.42 247.584 135.42C246.624 135.42 245.857 135.72 245.284 136.32C244.724 136.92 244.444 137.793 244.444 138.94V145H242.624V134.04H244.444V135.6C244.804 135.04 245.291 134.607 245.904 134.3C246.531 133.993 247.217 133.84 247.964 133.84ZM260.197 145.18C259.17 145.18 258.237 144.947 257.397 144.48C256.57 144.013 255.917 143.353 255.437 142.5C254.97 141.633 254.737 140.633 254.737 139.5C254.737 138.38 254.977 137.393 255.457 136.54C255.95 135.673 256.617 135.013 257.457 134.56C258.297 134.093 259.237 133.86 260.277 133.86C261.317 133.86 262.257 134.093 263.097 134.56C263.937 135.013 264.597 135.667 265.077 136.52C265.57 137.373 265.817 138.367 265.817 139.5C265.817 140.633 265.564 141.633 265.057 142.5C264.564 143.353 263.89 144.013 263.037 144.48C262.184 144.947 261.237 145.18 260.197 145.18ZM260.197 143.58C260.85 143.58 261.464 143.427 262.037 143.12C262.61 142.813 263.07 142.353 263.417 141.74C263.777 141.127 263.957 140.38 263.957 139.5C263.957 138.62 263.784 137.873 263.437 137.26C263.09 136.647 262.637 136.193 262.077 135.9C261.517 135.593 260.91 135.44 260.257 135.44C259.59 135.44 258.977 135.593 258.417 135.9C257.87 136.193 257.43 136.647 257.097 137.26C256.764 137.873 256.597 138.62 256.597 139.5C256.597 140.393 256.757 141.147 257.077 141.76C257.41 142.373 257.85 142.833 258.397 143.14C258.944 143.433 259.544 143.58 260.197 143.58ZM281.142 136.9V138.44H273.162V136.9H281.142ZM291.71 132.54V137.2H296.79V138.7H291.71V143.5H297.39V145H289.89V131.04H297.39V132.54H291.71ZM305.484 133.84C306.817 133.84 307.897 134.247 308.724 135.06C309.55 135.86 309.964 137.02 309.964 138.54V145H308.164V138.8C308.164 137.707 307.89 136.873 307.344 136.3C306.797 135.713 306.05 135.42 305.104 135.42C304.144 135.42 303.377 135.72 302.804 136.32C302.244 136.92 301.964 137.793 301.964 138.94V145H300.144V134.04H301.964V135.6C302.324 135.04 302.81 134.607 303.424 134.3C304.05 133.993 304.737 133.84 305.484 133.84ZM315.156 135.54V142C315.156 142.533 315.27 142.913 315.496 143.14C315.723 143.353 316.116 143.46 316.676 143.46H318.016V145H316.376C315.363 145 314.603 144.767 314.096 144.3C313.59 143.833 313.336 143.067 313.336 142V135.54H311.916V134.04H313.336V131.28H315.156V134.04H318.016V135.54H315.156ZM322.042 135.82C322.362 135.193 322.815 134.707 323.402 134.36C324.002 134.013 324.728 133.84 325.582 133.84V135.72H325.102C323.062 135.72 322.042 136.827 322.042 139.04V145H320.222V134.04H322.042V135.82ZM327.003 139.48C327.003 138.36 327.229 137.38 327.683 136.54C328.136 135.687 328.756 135.027 329.543 134.56C330.343 134.093 331.229 133.86 332.203 133.86C333.163 133.86 333.996 134.067 334.703 134.48C335.409 134.893 335.936 135.413 336.283 136.04V134.04H338.123V145H336.283V142.96C335.923 143.6 335.383 144.133 334.663 144.56C333.956 144.973 333.129 145.18 332.183 145.18C331.209 145.18 330.329 144.94 329.543 144.46C328.756 143.98 328.136 143.307 327.683 142.44C327.229 141.573 327.003 140.587 327.003 139.48ZM336.283 139.5C336.283 138.673 336.116 137.953 335.783 137.34C335.449 136.727 334.996 136.26 334.423 135.94C333.863 135.607 333.243 135.44 332.563 135.44C331.883 135.44 331.263 135.6 330.703 135.92C330.143 136.24 329.696 136.707 329.363 137.32C329.029 137.933 328.863 138.653 328.863 139.48C328.863 140.32 329.029 141.053 329.363 141.68C329.696 142.293 330.143 142.767 330.703 143.1C331.263 143.42 331.883 143.58 332.563 143.58C333.243 143.58 333.863 143.42 334.423 143.1C334.996 142.767 335.449 142.293 335.783 141.68C336.116 141.053 336.283 140.327 336.283 139.5ZM346.01 143.54C347.704 142.18 349.03 141.067 349.99 140.2C350.95 139.32 351.757 138.407 352.41 137.46C353.077 136.5 353.41 135.56 353.41 134.64C353.41 133.773 353.197 133.093 352.77 132.6C352.357 132.093 351.684 131.84 350.75 131.84C349.844 131.84 349.137 132.127 348.63 132.7C348.137 133.26 347.87 134.013 347.83 134.96H346.07C346.124 133.467 346.577 132.313 347.43 131.5C348.284 130.687 349.384 130.28 350.73 130.28C352.104 130.28 353.19 130.66 353.99 131.42C354.804 132.18 355.21 133.227 355.21 134.56C355.21 135.667 354.877 136.747 354.21 137.8C353.557 138.84 352.81 139.76 351.97 140.56C351.13 141.347 350.057 142.267 348.75 143.32H355.63V144.84H346.01V143.54ZM357.254 132.2V130.54H361.014V145H359.174V132.2H357.254ZM377.372 136.9V138.44H369.392V136.9H377.372ZM390.54 145.14C389.62 145.14 388.793 144.98 388.06 144.66C387.34 144.327 386.773 143.873 386.36 143.3C385.947 142.713 385.733 142.04 385.72 141.28H387.66C387.727 141.933 387.993 142.487 388.46 142.94C388.94 143.38 389.633 143.6 390.54 143.6C391.407 143.6 392.087 143.387 392.58 142.96C393.087 142.52 393.34 141.96 393.34 141.28C393.34 140.747 393.193 140.313 392.9 139.98C392.607 139.647 392.24 139.393 391.8 139.22C391.36 139.047 390.767 138.86 390.02 138.66C389.1 138.42 388.36 138.18 387.8 137.94C387.253 137.7 386.78 137.327 386.38 136.82C385.993 136.3 385.8 135.607 385.8 134.74C385.8 133.98 385.993 133.307 386.38 132.72C386.767 132.133 387.307 131.68 388 131.36C388.707 131.04 389.513 130.88 390.42 130.88C391.727 130.88 392.793 131.207 393.62 131.86C394.46 132.513 394.933 133.38 395.04 134.46H393.04C392.973 133.927 392.693 133.46 392.2 133.06C391.707 132.647 391.053 132.44 390.24 132.44C389.48 132.44 388.86 132.64 388.38 133.04C387.9 133.427 387.66 133.973 387.66 134.68C387.66 135.187 387.8 135.6 388.08 135.92C388.373 136.24 388.727 136.487 389.14 136.66C389.567 136.82 390.16 137.007 390.92 137.22C391.84 137.473 392.58 137.727 393.14 137.98C393.7 138.22 394.18 138.6 394.58 139.12C394.98 139.627 395.18 140.32 395.18 141.2C395.18 141.88 395 142.52 394.64 143.12C394.28 143.72 393.747 144.207 393.04 144.58C392.333 144.953 391.5 145.14 390.54 145.14ZM407.858 139.1C407.858 139.447 407.838 139.813 407.798 140.2H399.038C399.105 141.28 399.472 142.127 400.138 142.74C400.818 143.34 401.638 143.64 402.598 143.64C403.385 143.64 404.038 143.46 404.558 143.1C405.092 142.727 405.465 142.233 405.678 141.62H407.638C407.345 142.673 406.758 143.533 405.878 144.2C404.998 144.853 403.905 145.18 402.598 145.18C401.558 145.18 400.625 144.947 399.798 144.48C398.985 144.013 398.345 143.353 397.878 142.5C397.412 141.633 397.178 140.633 397.178 139.5C397.178 138.367 397.405 137.373 397.858 136.52C398.312 135.667 398.945 135.013 399.758 134.56C400.585 134.093 401.532 133.86 402.598 133.86C403.638 133.86 404.558 134.087 405.358 134.54C406.158 134.993 406.772 135.62 407.198 136.42C407.638 137.207 407.858 138.1 407.858 139.1ZM405.978 138.72C405.978 138.027 405.825 137.433 405.518 136.94C405.212 136.433 404.792 136.053 404.258 135.8C403.738 135.533 403.158 135.4 402.518 135.4C401.598 135.4 400.812 135.693 400.158 136.28C399.518 136.867 399.152 137.68 399.058 138.72H405.978ZM415.601 133.84C416.934 133.84 418.014 134.247 418.841 135.06C419.667 135.86 420.081 137.02 420.081 138.54V145H418.281V138.8C418.281 137.707 418.007 136.873 417.461 136.3C416.914 135.713 416.167 135.42 415.221 135.42C414.261 135.42 413.494 135.72 412.921 136.32C412.361 136.92 412.081 137.793 412.081 138.94V145H410.261V134.04H412.081V135.6C412.441 135.04 412.927 134.607 413.541 134.3C414.167 133.993 414.854 133.84 415.601 133.84ZM422.374 139.48C422.374 138.36 422.6 137.38 423.054 136.54C423.507 135.687 424.127 135.027 424.914 134.56C425.714 134.093 426.6 133.86 427.574 133.86C428.534 133.86 429.367 134.067 430.074 134.48C430.78 134.893 431.307 135.413 431.654 136.04V134.04H433.494V145H431.654V142.96C431.294 143.6 430.754 144.133 430.034 144.56C429.327 144.973 428.5 145.18 427.554 145.18C426.58 145.18 425.7 144.94 424.914 144.46C424.127 143.98 423.507 143.307 423.054 142.44C422.6 141.573 422.374 140.587 422.374 139.48ZM431.654 139.5C431.654 138.673 431.487 137.953 431.154 137.34C430.82 136.727 430.367 136.26 429.794 135.94C429.234 135.607 428.614 135.44 427.934 135.44C427.254 135.44 426.634 135.6 426.074 135.92C425.514 136.24 425.067 136.707 424.734 137.32C424.4 137.933 424.234 138.653 424.234 139.48C424.234 140.32 424.4 141.053 424.734 141.68C425.067 142.293 425.514 142.767 426.074 143.1C426.634 143.42 427.254 143.58 427.934 143.58C428.614 143.58 429.234 143.42 429.794 143.1C430.367 142.767 430.82 142.293 431.154 141.68C431.487 141.053 431.654 140.327 431.654 139.5ZM435.889 139.5C435.889 138.367 436.116 137.38 436.569 136.54C437.023 135.687 437.649 135.027 438.449 134.56C439.263 134.093 440.189 133.86 441.229 133.86C442.576 133.86 443.683 134.187 444.549 134.84C445.429 135.493 446.009 136.4 446.289 137.56H444.329C444.143 136.893 443.776 136.367 443.229 135.98C442.696 135.593 442.029 135.4 441.229 135.4C440.189 135.4 439.349 135.76 438.709 136.48C438.069 137.187 437.749 138.193 437.749 139.5C437.749 140.82 438.069 141.84 438.709 142.56C439.349 143.28 440.189 143.64 441.229 143.64C442.029 143.64 442.696 143.453 443.229 143.08C443.763 142.707 444.129 142.173 444.329 141.48H446.289C445.996 142.6 445.409 143.5 444.529 144.18C443.649 144.847 442.549 145.18 441.229 145.18C440.189 145.18 439.263 144.947 438.449 144.48C437.649 144.013 437.023 143.353 436.569 142.5C436.116 141.647 435.889 140.647 435.889 139.5Z" fill="#A49E9E"/>
</svg>
