<svg width="155" height="62" viewBox="0 0 155 62" fill="none" xmlns="http://www.w3.org/2000/svg">
<g filter="url(#filter0_d_17_111)">
<rect x="6.5" y="4.5" width="142" height="48.7946" rx="9.5" stroke="#7949FF" shape-rendering="crispEdges"/>
</g>
<path d="M47.5042 34.884H52.9092V37H44.8822V21.015H47.5042V34.884ZM62.393 37.161C60.9056 37.161 59.5333 36.816 58.276 36.126C57.034 35.4207 56.045 34.447 55.309 33.205C54.5883 31.9477 54.228 30.537 54.228 28.973C54.228 27.409 54.5883 26.006 55.309 24.764C56.045 23.522 57.034 22.556 58.276 21.866C59.5333 21.1607 60.9056 20.808 62.393 20.808C63.8956 20.808 65.268 21.1607 66.51 21.866C67.7673 22.556 68.7563 23.522 69.477 24.764C70.1976 26.006 70.558 27.409 70.558 28.973C70.558 30.537 70.1976 31.9477 69.477 33.205C68.7563 34.447 67.7673 35.4207 66.51 36.126C65.268 36.816 63.8956 37.161 62.393 37.161ZM62.393 34.884C63.451 34.884 64.394 34.6463 65.222 34.171C66.05 33.6803 66.694 32.9903 67.154 32.101C67.6293 31.1963 67.867 30.1537 67.867 28.973C67.867 27.7923 67.6293 26.7573 67.154 25.868C66.694 24.9787 66.05 24.2963 65.222 23.821C64.394 23.3457 63.451 23.108 62.393 23.108C61.335 23.108 60.392 23.3457 59.564 23.821C58.736 24.2963 58.0843 24.9787 57.609 25.868C57.149 26.7573 56.919 27.7923 56.919 28.973C56.919 30.1537 57.149 31.1963 57.609 32.101C58.0843 32.9903 58.736 33.6803 59.564 34.171C60.392 34.6463 61.335 34.884 62.393 34.884ZM84.7071 25.615C84.2931 24.8177 83.7181 24.2197 82.9821 23.821C82.2461 23.407 81.3951 23.2 80.4291 23.2C79.3711 23.2 78.4281 23.4377 77.6001 23.913C76.7721 24.3883 76.1204 25.063 75.6451 25.937C75.1851 26.811 74.9551 27.823 74.9551 28.973C74.9551 30.123 75.1851 31.1427 75.6451 32.032C76.1204 32.906 76.7721 33.5807 77.6001 34.056C78.4281 34.5313 79.3711 34.769 80.4291 34.769C81.8551 34.769 83.0128 34.3703 83.9021 33.573C84.7914 32.7757 85.3358 31.6947 85.5351 30.33H79.5321V28.237H88.3411V30.284C88.1724 31.526 87.7278 32.6683 87.0071 33.711C86.3018 34.7537 85.3741 35.5893 84.2241 36.218C83.0894 36.8313 81.8244 37.138 80.4291 37.138C78.9264 37.138 77.5541 36.793 76.3121 36.103C75.0701 35.3977 74.0811 34.424 73.3451 33.182C72.6244 31.94 72.2641 30.537 72.2641 28.973C72.2641 27.409 72.6244 26.006 73.3451 24.764C74.0811 23.522 75.0701 22.556 76.3121 21.866C77.5694 21.1607 78.9418 20.808 80.4291 20.808C82.1311 20.808 83.6414 21.2297 84.9601 22.073C86.2941 22.901 87.2601 24.0817 87.8581 25.615H84.7071ZM93.5491 21.015V37H90.9271V21.015H93.5491ZM110.125 37H107.503L99.6136 25.063V37H96.9916V20.992H99.6136L107.503 32.906V20.992H110.125V37Z" fill="white"/>
<defs>
<filter id="filter0_d_17_111" x="0" y="0" width="155" height="61.7946" filterUnits="userSpaceOnUse" color-interpolation-filters="sRGB">
<feFlood flood-opacity="0" result="BackgroundImageFix"/>
<feColorMatrix in="SourceAlpha" type="matrix" values="0 0 0 0 0 0 0 0 0 0 0 0 0 0 0 0 0 0 127 0" result="hardAlpha"/>
<feOffset dy="2"/>
<feGaussianBlur stdDeviation="3"/>
<feComposite in2="hardAlpha" operator="out"/>
<feColorMatrix type="matrix" values="0 0 0 0 0 0 0 0 0 0 0 0 0 0 0 0 0 0 0.25 0"/>
<feBlend mode="normal" in2="BackgroundImageFix" result="effect1_dropShadow_17_111"/>
<feBlend mode="normal" in="SourceGraphic" in2="effect1_dropShadow_17_111" result="shape"/>
</filter>
</defs>
</svg>
