<svg width="219" height="93" viewBox="0 0 219 93" fill="none" xmlns="http://www.w3.org/2000/svg">
<path d="M62.125 67.1667H8.87502C8.09042 67.1667 7.33796 66.8945 6.78316 66.41C6.22837 65.9256 5.91669 65.2685 5.91669 64.5833C5.91669 63.8982 6.22837 63.2411 6.78316 62.7566C7.33796 62.2722 8.09042 62 8.87502 62H62.125C62.9096 62 63.6621 62.2722 64.2169 62.7566C64.7717 63.2411 65.0834 63.8982 65.0834 64.5833C65.0834 65.2685 64.7717 65.9256 64.2169 66.41C63.6621 66.8945 62.9096 67.1667 62.125 67.1667ZM14.7917 31V51.6667H56.2084V31H14.7917ZM14.7917 25.8333H56.2084C57.7775 25.8333 59.2825 26.3777 60.3921 27.3466C61.5017 28.3156 62.125 29.6297 62.125 31V51.6667C62.125 53.037 61.5017 54.3511 60.3921 55.3201C59.2825 56.289 57.7775 56.8333 56.2084 56.8333H14.7917C13.2225 56.8333 11.7176 56.289 10.608 55.3201C9.49838 54.3511 8.87502 53.037 8.87502 51.6667V31C8.87502 29.6297 9.49838 28.3156 10.608 27.3466C11.7176 26.3777 13.2225 25.8333 14.7917 25.8333V25.8333Z" fill="#7949FF"/>
<path d="M79.775 30.28H86.145C90.2183 30.28 92.255 32.2083 92.255 36.065V47.96H79.45V55.5C79.45 56.2367 79.58 56.735 79.84 56.995C80.1 57.255 80.62 57.385 81.4 57.385H84.39C85.17 57.385 85.69 57.255 85.95 56.995C86.21 56.735 86.34 56.215 86.34 55.435V52.835H92.06V56.28C92.06 60.0933 90.045 62 86.015 62H79.775C75.745 62 73.73 60.0933 73.73 56.28V36.065C73.73 32.2083 75.745 30.28 79.775 30.28ZM79.45 43.67H86.47V36.78C86.47 36.0433 86.34 35.545 86.08 35.285C85.8633 35.025 85.365 34.895 84.585 34.895H81.4C80.62 34.895 80.1 35.025 79.84 35.285C79.58 35.545 79.45 36.0433 79.45 36.78V43.67ZM97.5429 45.165V40.615H111.713V45.165H97.5429ZM121.036 30.28L125.196 57.06L129.421 30.28H135.271L129.421 62H121.036L115.186 30.28H121.036ZM144.331 30.28H150.701C154.774 30.28 156.811 32.2083 156.811 36.065V47.96H144.006V55.5C144.006 56.2367 144.136 56.735 144.396 56.995C144.656 57.255 145.176 57.385 145.956 57.385H148.946C149.726 57.385 150.246 57.255 150.506 56.995C150.766 56.735 150.896 56.215 150.896 55.435V52.835H156.616V56.28C156.616 60.0933 154.601 62 150.571 62H144.331C140.301 62 138.286 60.0933 138.286 56.28V36.065C138.286 32.2083 140.301 30.28 144.331 30.28ZM144.006 43.67H151.026V36.78C151.026 36.0433 150.896 35.545 150.636 35.285C150.419 35.025 149.921 34.895 149.141 34.895H145.956C145.176 34.895 144.656 35.025 144.396 35.285C144.136 35.545 144.006 36.0433 144.006 36.78V43.67ZM171.719 30.28H173.994C177.937 30.28 179.909 32.2083 179.909 36.065V62H174.059V36.91C174.059 36.13 173.929 35.6317 173.669 35.415C173.409 35.155 172.889 35.025 172.109 35.025H169.834C169.054 35.025 168.49 35.1983 168.144 35.545C167.84 35.8917 167.689 36.4767 167.689 37.3V62H161.839V30.28H167.689V32.815C168.252 31.125 169.595 30.28 171.719 30.28ZM196.304 35.025H191.949V55.11C191.949 55.89 192.057 56.41 192.274 56.67C192.534 56.8867 193.054 56.995 193.834 56.995H196.304V62H192.144C188.07 62 186.034 60.0933 186.034 56.28V35.025H183.044V30.28H186.034V24.885H191.949V30.28H196.304V35.025ZM210.393 55.63V50.365C210.393 49.585 210.263 49.0867 210.003 48.87C209.743 48.61 209.223 48.48 208.443 48.48H205.128C201.098 48.48 199.082 46.5733 199.082 42.76V36.065C199.082 32.2083 201.098 30.28 205.128 30.28H209.873C213.946 30.28 215.983 32.2083 215.983 36.065V39.12H210.263V36.65C210.263 35.87 210.133 35.3717 209.873 35.155C209.613 34.895 209.093 34.765 208.313 34.765H206.753C205.973 34.765 205.453 34.895 205.193 35.155C204.933 35.3717 204.803 35.87 204.803 36.65V42.11C204.803 42.89 204.933 43.41 205.193 43.67C205.453 43.8867 205.973 43.995 206.753 43.995H210.133C214.119 43.995 216.113 45.9233 216.113 49.78V56.28C216.113 60.0933 214.098 62 210.068 62H205.258C201.228 62 199.213 60.0933 199.213 56.28V53.16H204.933V55.63C204.933 56.41 205.063 56.93 205.323 57.19C205.583 57.4067 206.103 57.515 206.883 57.515H208.443C209.223 57.515 209.743 57.4067 210.003 57.19C210.263 56.93 210.393 56.41 210.393 55.63Z" fill="white"/>
</svg>
