<svg width="155" height="62" viewBox="0 0 155 62" fill="none" xmlns="http://www.w3.org/2000/svg">
<g filter="url(#filter0_d_17_12)">
<rect x="6" y="4" width="142.779" height="50" rx="10" fill="#7949FF"/>
</g>
<path d="M43.0291 37.161C41.9558 37.161 40.9898 36.977 40.1311 36.609C39.2724 36.2257 38.5978 35.689 38.1071 34.999C37.6164 34.309 37.3711 33.504 37.3711 32.584H40.1771C40.2384 33.274 40.5068 33.8413 40.9821 34.286C41.4728 34.7307 42.1551 34.953 43.0291 34.953C43.9338 34.953 44.6391 34.7383 45.1451 34.309C45.6511 33.8643 45.9041 33.297 45.9041 32.607C45.9041 32.0703 45.7431 31.6333 45.4211 31.296C45.1144 30.9587 44.7234 30.698 44.2481 30.514C43.7881 30.33 43.1441 30.1307 42.3161 29.916C41.2734 29.64 40.4224 29.364 39.7631 29.088C39.1191 28.7967 38.5671 28.352 38.1071 27.754C37.6471 27.156 37.4171 26.3587 37.4171 25.362C37.4171 24.442 37.6471 23.637 38.1071 22.947C38.5671 22.257 39.2111 21.728 40.0391 21.36C40.8671 20.992 41.8254 20.808 42.9141 20.808C44.4628 20.808 45.7278 21.199 46.7091 21.981C47.7058 22.7477 48.2578 23.8057 48.3651 25.155H45.4671C45.4211 24.5723 45.1451 24.074 44.6391 23.66C44.1331 23.246 43.4661 23.039 42.6381 23.039C41.8868 23.039 41.2734 23.2307 40.7981 23.614C40.3228 23.9973 40.0851 24.5493 40.0851 25.27C40.0851 25.7607 40.2308 26.167 40.5221 26.489C40.8288 26.7957 41.2121 27.041 41.6721 27.225C42.1321 27.409 42.7608 27.6083 43.5581 27.823C44.6161 28.1143 45.4748 28.4057 46.1341 28.697C46.8088 28.9883 47.3761 29.4407 47.8361 30.054C48.3114 30.652 48.5491 31.457 48.5491 32.469C48.5491 33.2817 48.3268 34.0483 47.8821 34.769C47.4528 35.4897 46.8164 36.0723 45.9731 36.517C45.1451 36.9463 44.1638 37.161 43.0291 37.161ZM54.265 21.015V37H51.643V21.015H54.265ZM69.2764 25.615C68.8624 24.8177 68.2874 24.2197 67.5514 23.821C66.8154 23.407 65.9644 23.2 64.9984 23.2C63.9404 23.2 62.9974 23.4377 62.1694 23.913C61.3414 24.3883 60.6898 25.063 60.2144 25.937C59.7544 26.811 59.5244 27.823 59.5244 28.973C59.5244 30.123 59.7544 31.1427 60.2144 32.032C60.6898 32.906 61.3414 33.5807 62.1694 34.056C62.9974 34.5313 63.9404 34.769 64.9984 34.769C66.4244 34.769 67.5821 34.3703 68.4714 33.573C69.3608 32.7757 69.9051 31.6947 70.1044 30.33H64.1014V28.237H72.9104V30.284C72.7418 31.526 72.2971 32.6683 71.5764 33.711C70.8711 34.7537 69.9434 35.5893 68.7934 36.218C67.6588 36.8313 66.3938 37.138 64.9984 37.138C63.4958 37.138 62.1234 36.793 60.8814 36.103C59.6394 35.3977 58.6504 34.424 57.9144 33.182C57.1938 31.94 56.8334 30.537 56.8334 28.973C56.8334 27.409 57.1938 26.006 57.9144 24.764C58.6504 23.522 59.6394 22.556 60.8814 21.866C62.1388 21.1607 63.5111 20.808 64.9984 20.808C66.7004 20.808 68.2108 21.2297 69.5294 22.073C70.8634 22.901 71.8294 24.0817 72.4274 25.615H69.2764ZM88.6295 37H86.0075L78.1185 25.063V37H75.4965V20.992H78.1185L86.0075 32.906V20.992H88.6295V37ZM100.669 21.015V37H98.0473V21.015H100.669ZM117.245 37H114.623L106.734 25.063V37H104.112V20.992H106.734L114.623 32.906V20.992H117.245V37Z" fill="white"/>
<defs>
<filter id="filter0_d_17_12" x="0" y="0" width="154.779" height="62" filterUnits="userSpaceOnUse" color-interpolation-filters="sRGB">
<feFlood flood-opacity="0" result="BackgroundImageFix"/>
<feColorMatrix in="SourceAlpha" type="matrix" values="0 0 0 0 0 0 0 0 0 0 0 0 0 0 0 0 0 0 127 0" result="hardAlpha"/>
<feOffset dy="2"/>
<feGaussianBlur stdDeviation="3"/>
<feComposite in2="hardAlpha" operator="out"/>
<feColorMatrix type="matrix" values="0 0 0 0 0 0 0 0 0 0 0 0 0 0 0 0 0 0 0.25 0"/>
<feBlend mode="normal" in2="BackgroundImageFix" result="effect1_dropShadow_17_12"/>
<feBlend mode="normal" in="SourceGraphic" in2="effect1_dropShadow_17_12" result="shape"/>
</filter>
</defs>
</svg>
