<svg width="143" height="42" viewBox="0 0 143 42" fill="none" xmlns="http://www.w3.org/2000/svg">
<path d="M0.456 0.935997H14.408C18.376 0.935997 20.36 2.81333 20.36 6.568V35.368C20.36 39.1227 18.376 41 14.408 41H0.456V0.935997ZM14.536 34.6V7.336C14.536 6.568 14.408 6.07733 14.152 5.864C13.896 5.608 13.384 5.48 12.616 5.48H6.28V36.456H12.616C13.384 36.456 13.896 36.3493 14.152 36.136C14.408 35.88 14.536 35.368 14.536 34.6ZM27.215 0.935997H32.975V41H27.215V0.935997ZM57.6125 5.608H45.9645V18.792H55.1805V23.336H45.9645V41H40.1405V0.935997H57.6125V5.608ZM72.7185 41H66.8945V28.328L58.3185 0.935997H64.2065L69.7745 23.016L75.0225 0.935997H80.9105L72.7185 28.328V41ZM102.948 13.48H97.0595V7.336C97.0595 6.568 96.9315 6.07733 96.6755 5.864C96.4622 5.608 95.9715 5.48 95.2035 5.48H91.9395C91.1715 5.48 90.6595 5.608 90.4035 5.864C90.1475 6.07733 90.0195 6.568 90.0195 7.336V34.664C90.0195 35.432 90.1475 35.944 90.4035 36.2C90.6595 36.4133 91.1715 36.52 91.9395 36.52H95.2035C95.9715 36.52 96.4622 36.4133 96.6755 36.2C96.9315 35.944 97.0595 35.432 97.0595 34.664V28.584H102.948V35.368C102.948 39.1653 100.942 41.064 96.9315 41.064H90.1475C86.1795 41.064 84.1955 39.1653 84.1955 35.368V6.568C84.1955 2.81333 86.1795 0.935997 90.1475 0.935997H96.9315C100.942 0.935997 102.948 2.81333 102.948 6.568V13.48ZM109.153 0.935997H114.913V41H109.153V0.935997ZM136.798 41L135.198 31.72H126.75L125.278 41H119.518L126.622 0.935997H135.006L142.622 41H136.798ZM127.454 27.048H134.43L130.782 5.928L127.454 27.048Z" fill="#53A0E8"/>
</svg>
